<svg version="1" xmlns="http://www.w3.org/2000/svg" viewBox="862 428 144 144"><path d="M934 572c-39.68 0-72-32.32-72-72s32.32-72 72-72 72 32.32 72 72-32.32 72-72 72zm0-136.74c-35.702 0-64.74 29.04-64.74 64.74s29.038 64.74 64.74 64.74 64.74-29.04 64.74-64.74-29.038-64.74-64.74-64.74z"/><path d="M890.044 510.074l-10.31 10.31c.91 2.413 1.976 4.748 3.187 6.994l12.434-12.432 15.273 15.274-14.01 14.01c1.853 1.562 3.806 3.012 5.846 4.335l13.255-13.254 15.273 15.275-6.514 6.516c3.06.506 6.202.772 9.405.778l2.203-2.202 2.056 2.057c3.024-.213 5.986-.658 8.865-1.317l-3.285-3.284-2.545-2.546 15.273-15.274 11.56 11.56c1.957-1.42 3.82-2.955 5.582-4.6l-9.504-9.505-2.546-2.546 15.273-15.273 9.663 9.665c3.53-7.483 5.503-15.84 5.503-24.66 0-31.993-25.96-57.93-57.98-57.93-30.75 0-55.91 23.92-57.856 54.153l13.9 13.9zm25.674 15.054L902.99 512.4l-2.546-2.545 15.274-15.273 15.273 15.273-15.272 15.273zm20.365 20.365l-12.728-12.727-2.546-2.546 15.272-15.274 15.273 15.274-15.272 15.273zm35.64-35.638l-15.275 15.273L943.72 512.4l-2.545-2.545 15.273-15.273 15.274 15.273zm-35.64-35.638l15.273 15.273-15.273 15.273-12.728-12.727-2.546-2.546 15.273-15.273zm-20.364-20.364l15.272 15.273L915.72 484.4l-12.73-12.728-2.545-2.546 15.274-15.273zm-20.366 20.364l15.273 15.273-15.273 15.274-12.73-12.728-2.544-2.546 15.274-15.273z"/></svg>
