<?xml version="1.0" encoding="utf-8"?>
<!-- Generator: Adobe Illustrator 16.0.0, SVG Export Plug-In . SVG Version: 6.00 Build 0)  -->
<!DOCTYPE svg PUBLIC "-//W3C//DTD SVG 1.1//EN" "http://www.w3.org/Graphics/SVG/1.1/DTD/svg11.dtd">
<svg version="1.1" id="Layer_1" xmlns="http://www.w3.org/2000/svg" xmlns:xlink="http://www.w3.org/1999/xlink" x="0px" y="0px"
	 width="1920px" height="1080px" viewBox="0 0 1920 1080" enable-background="new 0 0 1920 1080" xml:space="preserve">
<path fill="#ED2224" d="M1380,1080c-297.597,0-540-242.403-540-540c0-297.598,242.403-540,540-540s540,242.402,540,540
	C1920,837.597,1677.598,1080,1380,1080z M1380,54.447c-267.763,0-485.553,217.79-485.553,485.554
	c0,267.763,217.79,485.553,485.553,485.553S1865.553,807.763,1865.553,540C1865.553,272.237,1647.763,54.447,1380,54.447z"/>
<path fill="#ED2224" d="M1050.328,615.557l-77.33,77.33c6.83,18.09,14.83,35.605,23.913,52.455l93.243-93.242l114.55,114.55
	l-105.075,105.077c13.896,11.724,28.542,22.587,43.85,32.52l99.41-99.409l114.553,114.55l-48.868,48.868
	c22.956,3.79,46.52,5.779,70.54,5.83l16.512-16.515l15.42,15.42c22.688-1.6,44.896-4.932,66.49-9.876L1452.9,938.48l-19.094-19.093
	l114.551-114.553l86.699,86.697c14.672-10.635,28.653-22.162,41.863-34.504l-71.287-71.286l-19.092-19.092l114.553-114.552
	l72.48,72.479c26.46-56.118,41.26-118.807,41.26-184.952c0-239.945-194.68-434.459-434.833-434.459
	c-230.63,0-419.32,179.393-433.922,406.14L1050.328,615.557L1050.328,615.557z M1242.888,728.467l-95.46-95.46l-19.092-19.091
	l114.554-114.553l114.55,114.55L1242.888,728.467L1242.888,728.467z M1395.623,881.202l-95.46-95.46l-19.092-19.092L1395.624,652.1
	l114.55,114.55L1395.623,881.202L1395.623,881.202z M1662.91,613.916l-114.553,114.55l-95.459-95.458l-19.093-19.092
	l114.552-114.553L1662.91,613.916z M1395.623,346.63l114.55,114.55l-114.55,114.55l-95.46-95.458l-19.09-19.092L1395.623,346.63
	L1395.623,346.63z M1242.89,193.893l114.55,114.55l-114.55,114.553l-95.46-95.46l-19.093-19.09L1242.89,193.893z M1090.15,346.63
	l114.552,114.55L1090.15,575.732l-95.461-95.46l-19.09-19.09L1090.15,346.63L1090.15,346.63z"/>
</svg>
