<svg version="1" xmlns="http://www.w3.org/2000/svg" viewBox="420 0 1080 1080" fill="#ED2224"><path d="M960 1080c-297.597 0-540-242.403-540-540S662.403 0 960 0s540 242.403 540 540-242.403 540-540 540zm0-1025.553c-267.763 0-485.553 217.79-485.553 485.553S692.237 1025.553 960 1025.553 1445.553 807.763 1445.553 540 1227.763 54.447 960 54.447z"/><path d="M630.328 615.557l-77.33 77.33c6.83 18.09 14.83 35.606 23.913 52.455l93.243-93.242 114.55 114.55-105.075 105.077c13.896 11.724 28.542 22.587 43.85 32.52l99.41-99.41 114.552 114.55-48.868 48.868c22.956 3.79 46.52 5.78 70.54 5.83l16.512-16.514 15.42 15.42c22.688-1.6 44.896-4.932 66.49-9.876L1032.9 938.48l-19.093-19.093 114.55-114.553 86.7 86.698c14.672-10.635 28.653-22.162 41.863-34.504l-71.287-71.286-19.092-19.092 114.553-114.552 72.48 72.48c26.46-56.118 41.26-118.807 41.26-184.952 0-239.946-194.68-434.46-434.833-434.46-230.63 0-419.32 179.393-433.922 406.14l104.25 104.25zm192.56 112.91l-95.46-95.46-19.092-19.09L822.89 499.364l114.55 114.55-114.553 114.552zm152.735 152.736l-95.46-95.46-19.092-19.092L975.624 652.1l114.55 114.55-114.55 114.553zm267.287-267.287l-114.552 114.55-95.46-95.458-19.092-19.092 114.552-114.552 114.552 114.552zM975.623 346.63l114.55 114.55-114.55 114.55-95.46-95.458-19.09-19.092 114.55-114.55zM822.89 193.893l114.55 114.55-114.55 114.553-95.46-95.46-19.093-19.09L822.89 193.893zM670.15 346.63l114.552 114.55-114.552 114.552-95.46-95.46-19.09-19.09 114.55-114.553z"/></svg>
